HIERARCHY
ROOT hip
{
	OFFSET 0.000000 0.000000 0.000000 
	CHANNELS 6 Xposition Yposition Zposition Xrotation Zrotation Yrotation
	JOINT abdomen
	{
		OFFSET 0.000000 3.402643 0.000000 
		CHANNELS 3 Xrotation Zrotation Yrotation
		JOINT chest
		{
			OFFSET 0.000000 8.438565 -0.680529 
			CHANNELS 3 Xrotation Zrotation Yrotation
			JOINT neck
			{
				OFFSET 0.000000 10.207942 -0.272212 
				CHANNELS 3 Xrotation Zrotation Yrotation
				JOINT head
				{
					OFFSET 0.000000 3.130431 0.000000 
					CHANNELS 3 Xrotation Zrotation Yrotation
					End Site
					{
						OFFSET 0.000000 3.130435 0.000000 
					}
				}
			}
			JOINT lCollar
			{
				OFFSET 3.470700 6.669187 -0.816635 
				CHANNELS 3 Yrotation Zrotation Xrotation
				JOINT lShldr
				{
					OFFSET 3.198488 0.000000 0.000000 
					CHANNELS 3 Zrotation Yrotation Xrotation
					JOINT lForeArm
					{
						OFFSET 10.139888 0.000000 0.000000 
						CHANNELS 3 Yrotation Zrotation Xrotation
						JOINT lHand
						{
							OFFSET 8.370511 0.000000 0.000000 
							CHANNELS 3 Zrotation Yrotation Xrotation
							End Site
							{
								OFFSET 4.083176 0.000000 0.000000 
							}
						}
					}
				}
			}
			JOINT rCollar
			{
				OFFSET -3.470700 6.669187 -0.816635 
				CHANNELS 3 Yrotation Zrotation Xrotation
				JOINT rShldr
				{
					OFFSET -3.198488 0.000000 0.000000 
					CHANNELS 3 Zrotation Yrotation Xrotation
					JOINT rForeArm
					{
						OFFSET -10.139888 0.000000 0.000000 
						CHANNELS 3 Yrotation Zrotation Xrotation
						JOINT rHand
						{
							OFFSET -8.370511 0.000000 0.000000 
							CHANNELS 3 Zrotation Yrotation Xrotation
							End Site
							{
								OFFSET -4.083176 0.000000 0.000000 
							}
						}
					}
				}
			}
		}
	}
	JOINT lThigh
	{
		OFFSET 5.308129 -1.633274 1.361059 
		CHANNELS 3 Xrotation Zrotation Yrotation
		JOINT lShin
		{
			OFFSET -2.041588 -20.007561 0.000000 
			CHANNELS 3 Xrotation Zrotation Yrotation
			JOINT lFoot
			{
				OFFSET 0.000000 -19.190928 -1.224953 
				CHANNELS 3 Xrotation Yrotation Zrotation
				End Site
				{
					OFFSET 0.000000 -2.449906 4.627600 
				}
			}
		}
	}
	JOINT rThigh
	{
		OFFSET -5.308129 -1.633274 1.361059 
		CHANNELS 3 Xrotation Zrotation Yrotation
		JOINT rShin
		{
			OFFSET 2.041588 -20.007561 0.000000 
			CHANNELS 3 Xrotation Zrotation Yrotation
			JOINT rFoot
			{
				OFFSET 0.000000 -19.190928 -1.224953 
				CHANNELS 3 Xrotation Yrotation Zrotation
				End Site
				{
					OFFSET 0.000000 -2.449906 4.627600 
				}
			}
		}
	}
}
MOTION
Frames: 18
Frame Time: 0.016667
-0.183594 44.387215 1.047723 -1.485510 -2.235580 -3.174510 -20.138599 1.250590 0.581580 18.505600 0.975937 0.453336 7.589669 -10.159667 -3.257479 11.074300 4.298340 -0.471831 2.000000 -2.000000 0.000000 87.372200 171.569000 5.468260 35.791401 -0.325747 0.080015 0.044683 -0.004020 -138.356995 -2.000000 2.000000 0.000000 -91.323502 -164.996994 -2.840660 -41.660599 0.316989 0.090881 -0.054912 -0.003073 -132.332001 -3.970453 1.358433 -7.947610 26.938488 3.738237 1.781569 -24.298107 10.655934 4.855625 6.356411 0.554718 -7.103936 5.645421 -5.761959 -0.210244 -13.931707 -4.311401 -0.767278 
-0.180122 44.386700 1.044255 -1.485470 -2.196530 -3.155990 -20.158001 1.219550 0.582219 18.466499 0.966154 0.453027 7.670309 -10.175756 -3.324014 11.094000 4.307810 -0.488698 2.000000 -2.000000 0.000000 87.411301 171.509995 5.516950 35.947601 -0.325528 0.080317 0.044676 -0.003719 -138.250000 -2.000000 2.000000 0.000000 -91.274696 -165.035995 -2.938220 -41.660599 0.316989 0.090881 -0.054910 -0.003046 -132.341995 -3.938290 1.306720 -7.999897 26.877449 3.752913 1.785313 -24.319077 10.610303 4.828243 6.249591 0.569560 -7.119799 5.857849 -5.923491 -0.217485 -14.022618 -4.342786 -0.699839 
-0.178294 44.386948 1.039242 -1.475650 -2.147730 -3.069730 -20.304100 1.163770 0.600297 18.183300 0.868395 0.452295 7.557138 -10.314768 -3.157904 11.044300 4.240520 -0.423308 2.000000 -2.000000 0.000000 87.547897 171.315002 5.428600 35.840199 -0.325678 0.080109 0.044665 -0.003200 -138.063995 -2.000000 2.000000 0.000000 -91.108597 -164.841003 -3.134010 -41.748501 0.316850 0.091038 -0.054901 -0.002937 -132.380997 -3.954709 1.277246 -7.989589 26.820116 3.738817 1.782455 -24.271797 10.521988 4.775997 6.255750 0.515947 -7.214442 5.841854 -5.912332 -0.227322 -14.003047 -4.336586 -0.706692 
-0.176464 44.387081 1.034230 -1.465820 -2.089160 -2.983700 -20.459900 1.098890 0.621940 17.900200 0.760900 0.452981 7.458724 -10.440815 -2.995050 10.994600 4.173210 -0.347305 2.000000 -2.000000 0.000000 87.684502 171.119995 5.340240 35.742599 -0.325815 0.079921 0.044655 -0.002680 -137.878998 -2.000000 2.000000 0.000000 -90.932701 -164.636993 -3.329830 -41.846100 0.316694 0.091211 -0.054895 -0.002855 -132.410004 -3.895899 1.264729 -7.974075 26.713144 3.727393 1.780578 -24.237759 10.423615 4.729622 6.318830 0.426919 -7.299496 5.685811 -5.804556 -0.211964 -13.918603 -4.324367 -0.762845 
-0.177569 44.386307 1.030854 -1.465780 -2.050110 -2.945630 -20.440399 1.095550 0.613055 17.919701 0.790178 0.442128 7.453784 -10.553122 -2.960050 11.023500 4.134120 -0.320626 2.000000 -2.000000 0.000000 87.713799 171.188995 5.223220 35.615601 -0.325991 0.079674 0.044648 -0.002188 -137.703003 -2.000000 2.000000 0.000000 -90.893700 -164.695999 -3.388280 -41.836399 0.316710 0.091194 -0.054895 -0.002855 -132.410004 -3.913350 1.226230 -7.954268 26.693022 3.730563 1.781434 -24.219198 10.417332 4.724887 6.244078 0.445179 -7.351889 5.854902 -5.926950 -0.227648 -14.005658 -4.328129 -0.702877 
-0.178675 44.385406 1.027477 -1.465750 -2.011060 -2.907570 -20.420900 1.092220 0.604170 17.939199 0.819457 0.431294 7.455062 -10.687039 -2.916180 11.052500 4.095030 -0.303752 2.000000 -2.000000 0.000000 87.743103 171.248001 5.096400 35.488701 -0.326167 0.079428 0.044642 -0.001696 -137.526993 -2.000000 2.000000 0.000000 -90.864403 -164.753998 -3.456490 -41.836399 0.316710 0.091194 -0.054895 -0.002855 -132.410004 -3.949406 1.187346 -7.923465 26.683184 3.730368 1.781433 -24.172375 10.394404 4.726614 6.313856 0.358328 -7.406760 5.723928 -5.821432 -0.203300 -13.942131 -4.317867 -0.749182 
-0.181000 44.384903 1.027713 -1.475550 -2.040340 -2.857640 -20.391701 1.107240 0.588611 17.978201 0.848749 0.430535 7.302958 -10.636017 -2.890208 10.993600 4.085970 -0.309119 2.000000 -2.000000 0.000000 87.801697 171.315994 4.989140 35.390999 -0.326303 0.079238 0.044639 -0.001368 -137.410004 -2.000000 2.000000 0.000000 -90.835098 -164.764008 -3.436940 -41.846100 0.316694 0.091211 -0.054886 -0.002746 -132.449005 -3.927783 1.234809 -7.914028 26.645235 3.718878 1.779091 -24.111609 10.363158 4.699415 6.259149 0.431516 -7.441114 5.848960 -5.932271 -0.217564 -14.016328 -4.282545 -0.712079 
-0.183323 44.384384 1.027950 -1.475560 -2.059860 -2.818080 -20.362700 1.131430 0.569673 18.017300 0.868287 0.430248 7.143951 -10.591891 -2.854814 10.934700 4.067210 -0.315640 2.000000 -2.000000 0.000000 87.860298 171.375000 4.881860 35.293301 -0.326437 0.079048 0.044636 -0.001040 -137.292999 -2.000000 2.000000 0.000000 -90.805801 -164.783997 -3.427120 -41.855900 0.316679 0.091229 -0.054876 -0.002610 -132.498001 -3.940694 1.264345 -7.912460 26.703577 3.725137 1.780118 -24.128681 10.325268 4.675587 6.329900 0.440497 -7.474277 5.735389 -5.852393 -0.223842 -13.995636 -4.232207 -0.739551 
-0.185759 44.385025 1.029686 -1.485330 -2.050090 -2.798450 -20.362700 1.131430 0.569673 18.017300 0.878043 0.429816 7.183472 -10.429320 -2.837935 10.886300 4.125900 -0.302351 2.000000 -2.000000 0.000000 87.909103 171.404999 4.725680 35.205399 -0.326558 0.078877 0.044634 -0.000630 -137.145996 -2.000000 2.000000 0.000000 -90.766701 -164.735001 -3.388180 -41.865700 0.316663 0.091246 -0.054874 -0.002582 -132.507996 -3.954289 1.253358 -7.921527 26.703041 3.729298 1.781058 -24.100925 10.315685 4.665757 6.291682 0.460410 -7.484455 5.837497 -5.930374 -0.227304 -14.036568 -4.252997 -0.686352 
-0.188197 44.385666 1.031419 -1.485320 -2.040330 -2.779170 -20.352900 1.131480 0.569810 18.027000 0.887806 0.429534 7.223949 -10.267810 -2.801235 10.838000 4.184610 -0.289162 2.000000 -2.000000 0.000000 87.967598 171.434006 4.559730 35.107800 -0.326693 0.078686 0.044633 -0.000192 -136.990005 -2.000000 2.000000 0.000000 -90.727600 -164.695007 -3.349220 -41.885201 0.316632 0.091281 -0.054872 -0.002555 -132.516998 -3.924421 1.252559 -7.923516 26.701731 3.736354 1.772966 -24.134293 10.325053 4.642768 6.273485 0.467537 -7.504576 5.909664 -5.969118 -0.230223 -14.075663 -4.265424 -0.672635 
-0.190902 44.383991 1.032818 -1.504820 -1.991500 -2.809050 -20.323299 1.117880 0.616971 18.046600 0.858551 0.450651 7.519085 -10.183680 -2.958352 10.927200 4.280600 -0.339401 2.000000 -2.000000 0.000000 88.075104 171.503006 4.462240 35.107800 -0.326693 0.078686 0.044633 -0.000083 -136.951004 -2.000000 2.000000 0.000000 -90.659203 -164.656006 -3.300490 -41.904701 0.316601 0.091316 -0.054880 -0.002664 -132.477997 -3.891104 1.205336 -7.877844 26.683435 3.728436 1.781008 -24.121046 10.294682 4.654388 6.291038 0.408199 -7.490876 5.878759 -5.944638 -0.228122 -14.059080 -4.242169 -0.692322 
-0.193607 44.382195 1.034218 -1.514540 -1.942680 -2.829530 -20.293600 1.100830 0.654959 18.056400 0.839044 0.461415 7.820590 -10.106519 -3.118049 11.006600 4.376650 -0.379580 2.000000 -2.000000 0.000000 88.192299 171.572006 4.354980 35.098000 -0.326706 0.078667 0.044633 0.000054 -136.901993 -2.000000 2.000000 0.000000 -90.600601 -164.626999 -3.241960 -41.924198 0.316570 0.091350 -0.054891 -0.002800 -132.429993 -3.874383 1.175066 -7.840399 26.663834 3.724424 1.770516 -24.092947 10.285865 4.646852 6.269676 0.374103 -7.476852 5.929827 -6.004218 -0.231635 -14.092715 -4.242501 -0.661433 
-0.197969 44.381691 1.037499 -1.514560 -1.962210 -2.868080 -20.274000 1.111210 0.682647 18.085699 0.819550 0.482217 7.811112 -10.154843 -3.108317 11.026000 4.357050 -0.380467 2.000000 -2.000000 0.000000 88.260597 171.591003 4.247600 35.137100 -0.326652 0.078744 0.044633 0.000246 -136.834000 -2.000000 2.000000 0.000000 -90.561501 -164.587997 -3.183470 -41.924198 0.316570 0.091350 -0.054893 -0.002828 -132.419998 -3.878966 1.191072 -7.820245 26.663248 3.728967 1.771554 -24.100142 10.293648 4.651482 6.335430 0.343843 -7.446350 5.808494 -5.889731 -0.215755 -14.020922 -4.223037 -0.713440 
-0.202331 44.381050 1.040778 -1.504810 -1.981740 -2.897200 -20.254299 1.121590 0.710334 18.115000 0.809811 0.492818 7.813797 -10.216706 -3.122664 11.055200 4.337330 -0.380629 2.000000 -2.000000 0.000000 88.338699 171.610992 4.140230 35.176201 -0.326599 0.078820 0.044633 0.000437 -136.766006 -2.000000 2.000000 0.000000 -90.522400 -164.548004 -3.124970 -41.933998 0.316554 0.091368 -0.054893 -0.002828 -132.419998 -3.861476 1.216199 -7.801121 26.652153 3.735412 1.763380 -24.121813 10.288882 4.663670 6.294388 0.385830 -7.394918 5.880569 -5.942848 -0.228909 -14.064125 -4.225371 -0.684009 
-0.210533 44.379753 1.048141 -1.495040 -1.991510 -2.926580 -20.244600 1.146820 0.721993 18.115000 0.819568 0.502167 7.787146 -10.201834 -3.105969 11.045600 4.356820 -0.378983 2.000000 -2.000000 0.000000 88.387497 171.610992 4.042570 35.205399 -0.326558 0.078877 0.044633 0.000410 -136.774994 -2.000000 2.000000 0.000000 -90.522400 -164.498993 -3.027430 -41.914501 0.316585 0.091333 -0.054889 -0.002773 -132.438995 -3.852563 1.226707 -7.840638 26.672176 3.733071 1.762707 -24.154512 10.319446 4.664135 6.244515 0.430376 -7.363523 5.958992 -6.016659 -0.232494 -14.087792 -4.269695 -0.642360 
-0.218734 44.378597 1.055506 -1.485280 -2.001280 -2.955960 -20.234900 1.168630 0.724514 18.124701 0.839087 0.511244 7.766089 -10.193204 -3.111076 11.026100 4.366740 -0.389044 2.000000 -2.000000 0.000000 88.436401 171.602005 3.944890 35.224998 -0.326532 0.078915 0.044633 0.000410 -136.774994 -2.000000 2.000000 0.000000 -90.522301 -164.460007 -2.929870 -41.895000 0.316617 0.091298 -0.054882 -0.002691 -132.468994 -3.856636 1.228236 -7.889271 26.673285 3.727605 1.771178 -24.214207 10.349027 4.701666 6.244066 0.439407 -7.352559 5.932685 -5.987081 -0.221009 -14.064255 -4.280311 -0.647249 
-0.223333 44.378342 1.063729 -1.465760 -2.020820 -2.965910 -20.234800 1.175480 0.742802 18.134501 0.839094 0.511387 7.966974 -10.195409 -3.202851 11.095300 4.424100 -0.415701 2.000000 -2.000000 0.000000 88.465599 171.612000 3.808200 35.195702 -0.326572 0.078858 0.044634 0.000656 -136.686996 -2.000000 2.000000 0.000000 -90.492996 -164.421005 -2.900670 -41.846100 0.316694 0.091211 -0.054884 -0.002719 -132.459000 -3.861418 1.246370 -7.878822 26.682180 3.731946 1.762387 -24.218363 10.339747 4.695430 6.331194 0.398987 -7.351296 5.734929 -5.838054 -0.203852 -13.978770 -4.257804 -0.741178 
-0.227932 44.378216 1.071948 -1.446220 -2.030600 -2.966360 -20.244600 1.188020 0.748433 18.153999 0.829349 0.521848 8.159941 -10.203417 -3.304713 11.154700 4.471860 -0.444195 2.000000 -2.000000 0.000000 88.494904 171.612000 3.681240 35.166401 -0.326612 0.078801 0.044635 0.000929 -136.589996 -2.000000 2.000000 0.000000 -90.453903 -164.391998 -2.871450 -41.807098 0.316757 0.091142 -0.054884 -0.002719 -132.459000 -3.888419 1.265851 -7.896295 26.703518 3.725574 1.780252 -24.225700 10.347213 4.701602 6.320509 0.417483 -7.330101 5.733806 -5.839699 -0.213790 -13.996322 -4.229939 -0.738320 
